<svg width="25" height="32" viewBox="0 0 25 32" fill="none" xmlns="http://www.w3.org/2000/svg">
<g clip-path="url(#clip0_13845_2)">
<path d="M6.00514 9.97512C6.5252 9.97512 6.9468 9.55352 6.9468 9.03346C6.9468 8.51339 6.5252 8.0918 6.00514 8.0918C5.48507 8.0918 5.06348 8.51339 5.06348 9.03346C5.06348 9.55352 5.48507 9.97512 6.00514 9.97512Z" fill="black"/>
<path d="M3.44166 12.8698C3.96173 12.8698 4.38332 12.4482 4.38332 11.9281C4.38332 11.4081 3.96173 10.9865 3.44166 10.9865C2.9216 10.9865 2.5 11.4081 2.5 11.9281C2.5 12.4482 2.9216 12.8698 3.44166 12.8698Z" fill="black"/>
<path fill-rule="evenodd" clip-rule="evenodd" d="M19.7277 2.85713C18.6618 2.30506 17.3502 2.72156 16.7982 3.78741L14.3869 8.44265C14.374 8.46761 14.3628 8.49302 14.3534 8.51873C13.1723 8.47823 12.0023 8.99998 11.2132 9.92347C10.2835 11.0115 9.13979 12.1989 8.16239 12.8052C6.76889 13.6697 5.61689 13.9812 4.90151 14.0918C4.4831 14.1565 4.1435 14.4259 3.97807 14.7752C3.80527 15.1401 3.8183 15.6182 4.15409 15.9882C4.88411 16.7927 6.30735 18.1103 8.91784 19.7706C10.7259 20.9205 12.347 21.5565 13.2194 21.8512C13.888 22.077 14.6026 21.8188 14.9862 21.2442C15.4713 20.5177 16.3231 19.1478 17.0545 17.4808C17.5956 16.2476 18.0618 14.9766 18.5079 13.7077C18.8842 12.6373 18.7149 11.5083 18.1428 10.6158L20.6557 5.79099C21.211 4.72469 20.7952 3.41008 19.7277 2.85713ZM17.1951 9.62116L19.5027 5.19048C19.7259 4.76198 19.5588 4.23368 19.1298 4.01147C18.7014 3.78961 18.1744 3.95699 17.9525 4.38532L15.6619 8.80765C15.7386 8.84019 15.8147 8.87556 15.8901 8.9138L16.7271 9.33818C16.892 9.42176 17.0482 9.51653 17.1951 9.62116ZM17.2815 13.2765C17.1889 13.54 17.0912 13.8139 16.99 14.093L11.7146 11.3246C11.8845 11.1352 12.0474 10.9484 12.2016 10.768C12.9868 9.84904 14.2755 9.55273 15.3022 10.0733L16.1392 10.4977C17.1705 11.0205 17.6581 12.2054 17.2815 13.2765ZM8.84769 13.9099C9.48912 13.512 10.1584 12.9305 10.7865 12.3055L10.7949 12.31L16.532 15.3208C16.3113 15.8946 16.0845 16.456 15.8641 16.9585C15.1734 18.5326 14.3649 19.8336 13.9051 20.5223C13.8395 20.6204 13.7331 20.6526 13.6354 20.6196C13.2517 20.49 12.7035 20.2861 12.0501 19.9904C12.3534 19.6706 12.7933 19.1478 13.2149 18.4296C13.3971 18.1192 13.2918 17.7252 12.9797 17.5495C12.6677 17.3739 12.267 17.4831 12.0849 17.7935C11.746 18.3708 11.3321 18.9395 10.8246 19.383C10.4375 19.1741 10.0318 18.9385 9.61549 18.6736C9.27695 18.4583 8.95991 18.2495 8.66313 18.0477C8.81755 17.9438 8.98688 17.8165 9.16866 17.6606C9.44204 17.4261 9.46919 17.0208 9.2293 16.7553C8.98941 16.4899 8.57332 16.4647 8.29994 16.6992C7.89759 17.0442 7.61657 17.1755 7.5033 17.2198C6.46825 16.4421 5.77478 15.8036 5.32598 15.338C6.19547 15.1763 7.42373 14.7933 8.84769 13.9099Z" fill="black"/>
</g>
<defs>
<clipPath id="clip0_13845_2">
<rect width="25" height="31.25" fill="white"/>
</clipPath>
</defs>
</svg>
