<svg xmlns="http://www.w3.org/2000/svg" viewBox="0 0 25 31.25" fill="none" x="0px" y="0px"><path d="M6.00514 9.97515C6.5252 9.97515 6.9468 9.55355 6.9468 9.03349C6.9468 8.51342 6.5252 8.09183 6.00514 8.09183C5.48507 8.09183 5.06348 8.51342 5.06348 9.03349C5.06348 9.55355 5.48507 9.97515 6.00514 9.97515Z" fill="black"/><path d="M3.44166 12.8697C3.96173 12.8697 4.38332 12.4481 4.38332 11.928C4.38332 11.408 3.96173 10.9864 3.44166 10.9864C2.9216 10.9864 2.5 11.408 2.5 11.928C2.5 12.4481 2.9216 12.8697 3.44166 12.8697Z" fill="black"/><path fill-rule="evenodd" clip-rule="evenodd" d="M19.7278 2.85713C18.6619 2.30506 17.3503 2.72156 16.7983 3.78741L14.387 8.44265C14.3741 8.46761 14.3629 8.49302 14.3535 8.51873C13.1724 8.47823 12.0024 8.99998 11.2133 9.92347C10.2836 11.0115 9.13984 12.1989 8.16244 12.8052C6.76894 13.6697 5.61694 13.9812 4.90156 14.0918C4.48315 14.1565 4.14355 14.4259 3.97812 14.7752C3.80532 15.1401 3.81835 15.6182 4.15414 15.9882C4.88416 16.7927 6.3074 18.1103 8.91789 19.7706C10.726 20.9205 12.3471 21.5565 13.2195 21.8512C13.8881 22.077 14.6027 21.8188 14.9863 21.2442C15.4714 20.5177 16.3232 19.1478 17.0546 17.4808C17.5957 16.2476 18.0619 14.9766 18.508 13.7077C18.8843 12.6373 18.715 11.5083 18.1429 10.6158L20.6558 5.79099C21.2111 4.72469 20.7953 3.41008 19.7278 2.85713ZM17.1952 9.62116L19.5028 5.19048C19.726 4.76198 19.5589 4.23368 19.1299 4.01147C18.7015 3.78961 18.1745 3.95699 17.9526 4.38532L15.662 8.80765C15.7387 8.84019 15.8148 8.87556 15.8902 8.9138L16.7272 9.33818C16.8921 9.42176 17.0483 9.51653 17.1952 9.62116ZM17.2816 13.2765C17.189 13.54 17.0913 13.8139 16.9901 14.093L11.7147 11.3246C11.8846 11.1352 12.0475 10.9484 12.2017 10.768C12.9869 9.84904 14.2756 9.55273 15.3023 10.0733L16.1393 10.4977C17.1706 11.0205 17.6582 12.2054 17.2816 13.2765ZM8.84774 13.9099C9.48917 13.512 10.1585 12.9305 10.7866 12.3055L10.795 12.31L16.5321 15.3208C16.3114 15.8946 16.0846 16.456 15.8642 16.9585C15.1735 18.5326 14.365 19.8336 13.9052 20.5223C13.8396 20.6204 13.7332 20.6526 13.6355 20.6196C13.2518 20.49 12.7036 20.2861 12.0502 19.9904C12.3535 19.6706 12.7934 19.1478 13.215 18.4296C13.3972 18.1192 13.2919 17.7252 12.9798 17.5495C12.6678 17.3739 12.2671 17.4831 12.085 17.7935C11.7461 18.3708 11.3322 18.9395 10.8247 19.383C10.4376 19.1741 10.0319 18.9385 9.61554 18.6736C9.277 18.4583 8.95996 18.2495 8.66318 18.0477C8.8176 17.9438 8.98693 17.8165 9.16871 17.6606C9.44209 17.4261 9.46924 17.0208 9.22935 16.7553C8.98946 16.4899 8.57337 16.4647 8.29999 16.6992C7.89764 17.0442 7.61662 17.1755 7.50335 17.2198C6.4683 16.4421 5.77483 15.8036 5.32603 15.338C6.19552 15.1763 7.42378 14.7933 8.84774 13.9099Z" fill="black"/><text x="0" y="40" fill="#000000" font-size="5px" font-weight="bold" font-family="'Helvetica Neue', Helvetica, Arial-Unicode, Arial, Sans-serif">Created by LAFS</text><text x="0" y="45" fill="#000000" font-size="5px" font-weight="bold" font-family="'Helvetica Neue', Helvetica, Arial-Unicode, Arial, Sans-serif">from the Noun Project</text></svg>