<svg width="1440" height="1024" viewBox="0 0 1440 1024" fill="none" xmlns="http://www.w3.org/2000/svg">
<path d="M1129 326.778L1322 714.778H1129L931 326.778C906.42 297.566 901.451 301.483 875 326.778C1013.5 129.278 1129 326.778 1129 326.778Z" fill="url(#paint0_linear_13761_3771)"/>
<path d="M847.711 304.177L654.5 663H847.711L1045.93 304.177C1070.53 277.161 1086.02 280.784 1112.5 304.177C973.849 121.529 847.711 304.177 847.711 304.177Z" fill="#16B89F"/>
<path d="M627.328 658.464L348.164 327.013C392.569 297.974 430.883 296.354 535.705 281.438L819.729 611.708C850.512 634.29 864.618 626.831 884.348 596.005C796.403 820.626 627.328 658.464 627.328 658.464Z" fill="url(#paint1_linear_13761_3771)"/>
<path d="M312 326.778L119 714.778H312L510 326.778C534.58 297.566 550.049 301.483 576.5 326.778C438 129.278 312 326.778 312 326.778Z" fill="#16B89F"/>
<g filter="url(#filter0_d_13761_3771)">
<path d="M253.741 684.195C268.66 684.195 279.927 686.28 287.543 690.451C295.159 694.622 298.966 701.974 298.966 712.505C298.966 718.866 297.454 724.236 294.428 728.616C291.507 732.995 287.282 735.654 281.753 736.593V737.375C285.508 738.105 288.899 739.408 291.924 741.285C294.95 743.162 297.349 745.873 299.123 749.418C300.897 752.964 301.783 757.656 301.783 763.495C301.783 773.61 298.132 781.535 290.829 787.27C283.526 793.005 273.511 795.872 260.783 795.872H239.891H244.308H219V684.195H253.741ZM256.401 728.459C263.287 728.459 268.034 727.364 270.642 725.175C273.354 722.985 274.711 719.804 274.711 715.634C274.711 711.358 273.146 708.282 270.016 706.405C266.886 704.528 261.93 703.59 255.149 703.59H242.63V728.459H256.401ZM242.63 747.229V776.321H258.123C265.217 776.321 270.172 774.965 272.989 772.254C275.806 769.439 277.214 765.737 277.214 761.149C277.214 756.978 275.754 753.641 272.833 751.139C270.016 748.532 264.852 747.229 257.34 747.229H242.63Z" fill="white"/>
<path d="M364.518 708.908C365.666 708.908 367.022 708.96 368.587 709.064C370.152 709.169 371.404 709.325 372.343 709.533L370.621 731.431C369.891 731.222 368.795 731.066 367.335 730.962C365.979 730.753 364.779 730.649 363.736 730.649C359.771 730.649 355.963 731.379 352.312 732.839C348.66 734.194 345.687 736.436 343.392 739.564C341.201 742.693 340.106 746.968 340.106 752.39V784.924L316.789 795.872V710.472L332.5 720.326L337.915 724.862H339.01C341.514 720.482 344.957 716.728 349.339 713.6C353.72 710.472 358.78 708.908 364.518 708.908Z" fill="white"/>
<path d="M466.253 720.327V784.925L448.413 795.873L445.283 784.925H444.031C441.319 789.304 437.563 792.484 432.764 794.466C428.069 796.447 423.061 797.438 417.741 797.438C408.56 797.438 401.205 794.987 395.676 790.086C390.146 785.081 387.382 777.104 387.382 766.155V710.473L410.699 720.327V760.368C410.699 766.416 411.794 771.004 413.985 774.132C416.176 777.26 419.671 778.825 424.47 778.825C431.564 778.825 436.415 776.426 439.023 771.63C441.632 766.729 442.936 759.742 442.936 750.671V710.473L466.253 720.327Z" fill="white"/>
<path d="M539.213 708.908C548.393 708.908 555.748 711.41 561.278 716.416C566.807 721.316 569.572 729.241 569.572 740.19V784.924L546.255 795.872V745.977C546.255 739.825 545.159 735.237 542.968 732.213C540.777 729.085 537.282 727.521 532.483 727.521C525.389 727.521 520.538 729.971 517.93 734.872C515.322 739.669 514.018 746.603 514.018 755.675V784.924L490.701 795.872V710.472H508.54L511.67 721.421H512.922C515.635 717.041 519.338 713.861 524.033 711.88C528.832 709.898 533.892 708.908 539.213 708.908Z" fill="white"/>
<path d="M671.169 753.016C671.169 767.197 667.414 778.146 659.902 785.862C652.495 793.578 642.375 797.437 629.543 797.437C621.614 797.437 614.52 795.716 608.26 792.275C602.105 788.834 597.254 783.829 593.707 777.259C590.159 770.586 588.386 762.505 588.386 753.016C588.386 738.834 592.09 727.938 599.497 720.326C606.904 712.714 617.076 708.908 630.012 708.908C638.045 708.908 645.14 710.628 651.295 714.069C657.45 717.51 662.301 722.516 665.849 729.085C669.396 735.55 671.169 743.527 671.169 753.016ZM612.172 753.016C612.172 761.462 613.529 767.875 616.241 772.254C619.058 776.53 623.596 778.667 629.856 778.667C636.011 778.667 640.445 776.53 643.158 772.254C645.974 767.875 647.383 761.462 647.383 753.016C647.383 744.57 645.974 738.261 643.158 734.09C640.445 729.815 635.959 727.677 629.699 727.677C623.544 727.677 619.058 729.815 616.241 734.09C613.529 738.261 612.172 744.57 612.172 753.016Z" fill="white"/>
<path d="M780.228 791.181L753.312 708.282H752.686C752.79 710.368 752.947 713.496 753.155 717.667C753.364 721.838 753.573 726.322 753.781 731.118C753.99 735.811 754.094 740.086 754.094 743.944V784.924L732.968 795.872V684.195H765.205L791.652 769.595H792.122L820.133 684.195H852.37V795.872L830.305 784.924V743.005C830.305 739.46 830.357 735.393 830.462 730.805C830.67 726.217 830.827 721.89 830.931 717.823C831.14 713.652 831.296 710.524 831.401 708.439H830.775L801.98 791.181H780.228Z" fill="white"/>
<path d="M890.454 677C893.896 677 896.87 677.834 899.374 679.503C901.877 681.067 903.129 684.038 903.129 688.418C903.129 692.693 901.877 695.665 899.374 697.333C896.87 699.002 893.896 699.836 890.454 699.836C886.907 699.836 883.881 699.002 881.377 697.333C878.978 695.665 877.778 692.693 877.778 688.418C877.778 684.038 878.978 681.067 881.377 679.503C883.881 677.834 886.907 677 890.454 677ZM902.034 721.421V795.872H878.717V710.472L902.034 721.421Z" fill="white"/>
<path d="M961.138 797.437C948.41 797.437 938.552 793.943 931.562 786.957C924.676 779.866 921.233 768.761 921.233 753.641C921.233 743.214 923.007 734.716 926.554 728.146C930.101 721.577 935.004 716.728 941.264 713.6C947.628 710.472 954.931 708.908 963.173 708.908C969.015 708.908 974.075 709.481 978.352 710.628C982.734 711.775 986.542 713.131 989.776 714.695L982.89 732.682C979.239 731.222 975.796 730.023 972.562 729.085C969.432 728.146 966.302 727.677 963.173 727.677C951.071 727.677 945.02 736.28 945.02 753.485C945.02 762.035 946.585 768.344 949.714 772.411C952.949 776.477 957.435 778.511 963.173 778.511C968.076 778.511 972.406 777.885 976.161 776.634C979.917 775.278 983.569 773.453 987.116 771.159V791.024C983.569 793.318 979.813 794.934 975.848 795.872C971.988 796.915 967.085 797.437 961.138 797.437Z" fill="white"/>
<path d="M1041.84 708.75C1053.31 708.75 1062.08 711.253 1068.13 716.258C1074.28 721.159 1077.36 728.719 1077.36 738.938V784.923L1061.08 795.871L1056.55 784.297H1055.92C1052.27 788.885 1048.41 792.222 1044.34 794.307C1040.27 796.393 1034.69 797.436 1027.6 797.436C1019.98 797.436 1013.67 795.246 1008.66 790.866C1003.65 786.382 1001.15 779.553 1001.15 770.376C1001.15 761.305 1004.33 754.631 1010.69 750.356C1017.06 745.976 1026.6 743.578 1039.33 743.161L1054.2 742.692V738.938C1054.2 734.454 1053 731.169 1050.6 729.084C1048.3 726.998 1045.07 725.956 1040.9 725.956C1036.72 725.956 1032.66 726.581 1028.69 727.833C1024.73 728.98 1020.76 730.439 1016.8 732.212L1009.13 716.415C1013.72 714.016 1018.78 712.139 1024.31 710.784C1029.94 709.428 1035.78 708.75 1041.84 708.75ZM1045.12 756.612C1037.61 756.821 1032.39 758.176 1029.47 760.679C1026.55 763.181 1025.09 766.466 1025.09 770.533C1025.09 774.078 1026.13 776.633 1028.22 778.197C1030.31 779.657 1033.02 780.387 1036.36 780.387C1041.37 780.387 1045.59 778.927 1049.03 776.007C1052.48 772.983 1054.2 768.76 1054.2 763.338V756.299L1045.12 756.612Z" fill="white"/>
<path d="M1124.54 795.872H1101.23V677L1124.54 688.418V795.872Z" fill="white"/>
<path d="M1172.22 795.872H1148.91V677L1172.22 688.418V795.872Z" fill="white"/>
<path d="M1208.32 677C1211.77 677 1214.74 677.834 1217.24 679.503C1219.75 681.067 1221 684.038 1221 688.418C1221 692.693 1219.75 695.665 1217.24 697.333C1214.74 699.002 1211.77 699.836 1208.32 699.836C1204.78 699.836 1201.75 699.002 1199.25 697.333C1196.85 695.665 1195.65 692.693 1195.65 688.418C1195.65 684.038 1196.85 681.067 1199.25 679.503C1201.75 677.834 1204.78 677 1208.32 677ZM1219.9 721.421V795.872H1196.59V710.472L1219.9 721.421Z" fill="white"/>
<path d="M685.173 854.045C685.173 866.628 681.591 876.117 674.428 882.512C667.333 888.838 657.353 892.001 644.486 892.001H623.412V817.549H646.781C654.571 817.549 661.317 818.94 667.02 821.72C672.793 824.501 677.244 828.602 680.374 834.025C683.574 839.377 685.173 846.051 685.173 854.045ZM668.794 854.462C668.794 846.19 666.986 840.142 663.369 836.319C659.752 832.426 654.501 830.479 647.616 830.479H639.165V878.967H645.946C661.178 878.967 668.794 870.799 668.794 854.462Z" fill="white"/>
<path d="M743.516 892.001H700.638V817.549H743.516L732.968 830.479H716.391V846.85H741.639V859.78H716.391V878.967L732.968 878.237L743.516 892.001Z" fill="white"/>
<path d="M817.439 817.549L792.088 892.001H774.874L749.627 817.549L765.589 821.72L779.569 861.866C779.847 862.63 780.229 864.056 780.716 866.141C781.273 868.157 781.829 870.312 782.385 872.606C782.942 874.831 783.324 876.707 783.533 878.237C783.742 876.707 784.089 874.831 784.576 872.606C785.133 870.312 785.689 868.157 786.246 866.141C786.802 864.056 787.185 862.63 787.393 861.866L801.477 821.72L817.439 817.549Z" fill="white"/>
</g>
<defs>
<filter id="filter0_d_13761_3771" x="215.5" y="673.5" width="1021" height="234" filterUnits="userSpaceOnUse" color-interpolation-filters="sRGB">
<feFlood flood-opacity="0" result="BackgroundImageFix"/>
<feColorMatrix in="SourceAlpha" type="matrix" values="0 0 0 0 0 0 0 0 0 0 0 0 0 0 0 0 0 0 127 0" result="hardAlpha"/>
<feOffset dx="6" dy="6"/>
<feGaussianBlur stdDeviation="4.75"/>
<feComposite in2="hardAlpha" operator="out"/>
<feColorMatrix type="matrix" values="0 0 0 0 0 0 0 0 0 0 0 0 0 0 0 0 0 0 0.35 0"/>
<feBlend mode="normal" in2="BackgroundImageFix" result="effect1_dropShadow_13761_3771"/>
<feBlend mode="normal" in="SourceGraphic" in2="effect1_dropShadow_13761_3771" result="shape"/>
</filter>
<linearGradient id="paint0_linear_13761_3771" x1="1093.25" y1="239" x2="1082" y2="727" gradientUnits="userSpaceOnUse">
<stop offset="0.19432" stop-color="#21E6C1"/>
<stop offset="1" stop-color="white" stop-opacity="0"/>
</linearGradient>
<linearGradient id="paint1_linear_13761_3771" x1="682.795" y1="735.317" x2="567.923" y2="262.62" gradientUnits="userSpaceOnUse">
<stop offset="0.41815" stop-color="#21E6C1"/>
<stop offset="1" stop-color="white" stop-opacity="0"/>
</linearGradient>
</defs>
</svg>
